<svg width="64" height="64" viewBox="0 0 64 64" fill="none" xmlns="http://www.w3.org/2000/svg">
<path d="M32 64C23.5139 64 15.3729 60.6284 9.37028 54.6297C3.37173 48.6275 0 40.4859 0 32C0 23.5141 3.37163 15.3729 9.37028 9.37028C15.3725 3.37173 23.5141 0 32 0C40.4859 0 48.6271 3.37163 54.6297 9.37028C60.6283 15.3725 64 23.5141 64 32C63.9927 40.4861 60.6173 48.6196 54.6187 54.6184C48.6202 60.6173 40.4859 63.9927 32 64ZM32 1.12717C23.8111 1.12717 15.9599 4.37774 10.1705 10.1709C4.37736 15.9604 1.12679 23.8113 1.12679 32.0004C1.12679 40.1895 4.37736 48.0405 10.1705 53.8299C15.96 59.623 23.8109 62.8736 32 62.8736C40.1891 62.8736 48.0401 59.623 53.8295 53.8299C59.6226 48.0404 62.8732 40.1895 62.8732 32.0004C62.8659 23.8152 59.6079 15.9678 53.8222 10.1784C48.0327 4.39258 40.1844 1.1345 32 1.12717Z" fill="white"/>
<path d="M31.9561 47.7806C31.3434 47.7806 30.7527 47.5385 30.3197 47.1019L19.6032 36.4069C18.7006 35.5044 18.7006 34.0405 19.6032 33.1379C20.5057 32.2354 21.9696 32.2354 22.8722 33.1379L29.5531 39.8189L29.5495 18.5173C29.6008 17.2772 30.6208 16.2939 31.8645 16.2939C33.1045 16.2939 34.1245 17.2772 34.1758 18.5173V39.9833L41.1136 33.0455C42.0161 32.143 43.48 32.143 44.3826 33.0455C45.2851 33.948 45.2851 35.4119 44.3826 36.3145L33.5815 47.1193C33.1486 47.5449 32.5615 47.7843 31.9561 47.7806ZM21.2433 33.5899C20.9314 33.5899 20.6269 33.7146 20.4068 33.9347C19.9445 34.4007 19.9445 35.1491 20.4068 35.6114L31.1158 46.3205C31.5818 46.7828 32.3302 46.7828 32.7925 46.3205L43.5936 35.5156C43.8174 35.2955 43.9458 34.9947 43.9422 34.6791C43.9422 34.2022 43.6523 33.7693 43.2084 33.5858C42.7681 33.4023 42.2582 33.5051 41.917 33.8426L33.053 42.7065L33.0567 18.5177C33.02 17.8867 32.499 17.3951 31.8717 17.3951C31.2406 17.3951 30.7196 17.8867 30.6866 18.5177V42.5375L22.0831 33.934C21.8593 33.7138 21.5588 33.5899 21.2433 33.5899Z" fill="white"/>
</svg>
